<mxfile host="app.diagrams.net" agent="Mozilla/5.0 (X11; Linux x86_64) AppleWebKit/537.36 (KHTML, like Gecko) Chrome/133.0.0.0 Safari/537.36" version="26.0.16">
  <diagram name="Page-1" id="e56a1550-8fbb-45ad-956c-1786394a9013">
    <mxGraphModel dx="3108" dy="1146" grid="1" gridSize="10" guides="1" tooltips="1" connect="1" arrows="1" fold="1" page="1" pageScale="1" pageWidth="1100" pageHeight="850" background="none" math="0" shadow="0">
      <root>
        <mxCell id="0" />
        <mxCell id="1" parent="0" />
        <mxCell id="arhuPyZS-XFLnQBNVv1O-77" value="&lt;span style=&quot;white-space: pre-wrap; background-color: rgb(228, 228, 228);&quot;&gt;&lt;font style=&quot;&quot;&gt;Ð¡lient&lt;/font&gt;&lt;/span&gt;" style="swimlane;html=1;fontStyle=0;childLayout=stackLayout;horizontal=1;startSize=26;fillColor=#e0e0e0;horizontalStack=0;resizeParent=1;resizeLast=0;collapsible=1;marginBottom=0;swimlaneFillColor=#ffffff;align=center;rounded=0;shadow=0;comic=0;labelBackgroundColor=none;strokeWidth=1;fontFamily=Verdana;fontSize=14;swimlaneLine=1;" parent="1" vertex="1">
          <mxGeometry x="39" y="240" width="160" height="144" as="geometry">
            <mxRectangle x="40" y="368" width="70" height="30" as="alternateBounds" />
          </mxGeometry>
        </mxCell>
        <mxCell id="arhuPyZS-XFLnQBNVv1O-78" value="uniqueId" style="shape=partialRectangle;top=0;left=0;right=0;bottom=1;html=1;align=left;verticalAlign=middle;fillColor=none;spacingLeft=34;spacingRight=4;whiteSpace=wrap;overflow=hidden;rotatable=0;points=[[0,0.5],[1,0.5]];portConstraint=eastwest;dropTarget=0;fontStyle=5;swimlaneLine=1;" parent="arhuPyZS-XFLnQBNVv1O-77" vertex="1">
          <mxGeometry y="26" width="160" height="30" as="geometry" />
        </mxCell>
        <mxCell id="arhuPyZS-XFLnQBNVv1O-79" value="PK" style="shape=partialRectangle;top=0;left=0;bottom=0;html=1;fillColor=none;align=left;verticalAlign=middle;spacingLeft=4;spacingRight=4;whiteSpace=wrap;overflow=hidden;rotatable=0;points=[];portConstraint=eastwest;part=1;swimlaneLine=1;" parent="arhuPyZS-XFLnQBNVv1O-78" vertex="1" connectable="0">
          <mxGeometry width="30" height="30" as="geometry" />
        </mxCell>
        <mxCell id="arhuPyZS-XFLnQBNVv1O-80" value="name" style="shape=partialRectangle;top=0;left=0;right=0;bottom=0;html=1;align=left;verticalAlign=top;fillColor=none;spacingLeft=34;spacingRight=4;whiteSpace=wrap;overflow=hidden;rotatable=0;points=[[0,0.5],[1,0.5]];portConstraint=eastwest;dropTarget=0;swimlaneLine=1;" parent="arhuPyZS-XFLnQBNVv1O-77" vertex="1">
          <mxGeometry y="56" width="160" height="26" as="geometry" />
        </mxCell>
        <mxCell id="arhuPyZS-XFLnQBNVv1O-81" value="" style="shape=partialRectangle;top=0;left=0;bottom=0;html=1;fillColor=none;align=left;verticalAlign=top;spacingLeft=4;spacingRight=4;whiteSpace=wrap;overflow=hidden;rotatable=0;points=[];portConstraint=eastwest;part=1;swimlaneLine=1;" parent="arhuPyZS-XFLnQBNVv1O-80" vertex="1" connectable="0">
          <mxGeometry width="30" height="26" as="geometry" />
        </mxCell>
        <mxCell id="arhuPyZS-XFLnQBNVv1O-82" value="email" style="shape=partialRectangle;top=0;left=0;right=0;bottom=0;html=1;align=left;verticalAlign=top;fillColor=none;spacingLeft=34;spacingRight=4;whiteSpace=wrap;overflow=hidden;rotatable=0;points=[[0,0.5],[1,0.5]];portConstraint=eastwest;dropTarget=0;swimlaneLine=1;" parent="arhuPyZS-XFLnQBNVv1O-77" vertex="1">
          <mxGeometry y="82" width="160" height="26" as="geometry" />
        </mxCell>
        <mxCell id="arhuPyZS-XFLnQBNVv1O-83" value="" style="shape=partialRectangle;top=0;left=0;bottom=0;html=1;fillColor=none;align=left;verticalAlign=top;spacingLeft=4;spacingRight=4;whiteSpace=wrap;overflow=hidden;rotatable=0;points=[];portConstraint=eastwest;part=1;swimlaneLine=1;" parent="arhuPyZS-XFLnQBNVv1O-82" vertex="1" connectable="0">
          <mxGeometry width="30" height="26" as="geometry" />
        </mxCell>
        <mxCell id="arhuPyZS-XFLnQBNVv1O-84" value="phone" style="shape=partialRectangle;top=0;left=0;right=0;bottom=0;html=1;align=left;verticalAlign=top;fillColor=none;spacingLeft=34;spacingRight=4;whiteSpace=wrap;overflow=hidden;rotatable=0;points=[[0,0.5],[1,0.5]];portConstraint=eastwest;dropTarget=0;swimlaneLine=1;" parent="arhuPyZS-XFLnQBNVv1O-77" vertex="1">
          <mxGeometry y="108" width="160" height="26" as="geometry" />
        </mxCell>
        <mxCell id="arhuPyZS-XFLnQBNVv1O-85" value="" style="shape=partialRectangle;top=0;left=0;bottom=0;html=1;fillColor=none;align=left;verticalAlign=top;spacingLeft=4;spacingRight=4;whiteSpace=wrap;overflow=hidden;rotatable=0;points=[];portConstraint=eastwest;part=1;swimlaneLine=1;" parent="arhuPyZS-XFLnQBNVv1O-84" vertex="1" connectable="0">
          <mxGeometry width="30" height="26" as="geometry" />
        </mxCell>
        <mxCell id="arhuPyZS-XFLnQBNVv1O-86" value="" style="shape=partialRectangle;top=0;left=0;right=0;bottom=0;html=1;align=left;verticalAlign=top;fillColor=none;spacingLeft=34;spacingRight=4;whiteSpace=wrap;overflow=hidden;rotatable=0;points=[[0,0.5],[1,0.5]];portConstraint=eastwest;dropTarget=0;swimlaneLine=1;" parent="arhuPyZS-XFLnQBNVv1O-77" vertex="1">
          <mxGeometry y="134" width="160" height="10" as="geometry" />
        </mxCell>
        <mxCell id="arhuPyZS-XFLnQBNVv1O-87" value="" style="shape=partialRectangle;top=0;left=0;bottom=0;html=1;fillColor=none;align=left;verticalAlign=top;spacingLeft=4;spacingRight=4;whiteSpace=wrap;overflow=hidden;rotatable=0;points=[];portConstraint=eastwest;part=1;swimlaneLine=1;" parent="arhuPyZS-XFLnQBNVv1O-86" vertex="1" connectable="0">
          <mxGeometry width="30" height="10" as="geometry" />
        </mxCell>
        <mxCell id="arhuPyZS-XFLnQBNVv1O-107" value="&lt;span style=&quot;white-space: pre-wrap; background-color: rgb(228, 228, 228);&quot;&gt;&lt;font style=&quot;&quot;&gt;Session&lt;/font&gt;&lt;/span&gt;" style="swimlane;html=1;fontStyle=0;childLayout=stackLayout;horizontal=1;startSize=26;fillColor=#e0e0e0;horizontalStack=0;resizeParent=1;resizeLast=0;collapsible=1;marginBottom=0;swimlaneFillColor=#ffffff;align=center;rounded=0;shadow=0;comic=0;labelBackgroundColor=none;strokeWidth=1;fontFamily=Verdana;fontSize=14" parent="1" vertex="1">
          <mxGeometry x="600" y="320" width="160" height="204" as="geometry">
            <mxRectangle x="40" y="368" width="70" height="30" as="alternateBounds" />
          </mxGeometry>
        </mxCell>
        <mxCell id="arhuPyZS-XFLnQBNVv1O-108" value="uniqueId" style="shape=partialRectangle;top=0;left=0;right=0;bottom=1;html=1;align=left;verticalAlign=middle;fillColor=none;spacingLeft=34;spacingRight=4;whiteSpace=wrap;overflow=hidden;rotatable=0;points=[[0,0.5],[1,0.5]];portConstraint=eastwest;dropTarget=0;fontStyle=5;" parent="arhuPyZS-XFLnQBNVv1O-107" vertex="1">
          <mxGeometry y="26" width="160" height="64" as="geometry" />
        </mxCell>
        <mxCell id="arhuPyZS-XFLnQBNVv1O-109" value="PK" style="shape=partialRectangle;top=0;left=0;bottom=0;html=1;fillColor=none;align=left;verticalAlign=middle;spacingLeft=4;spacingRight=4;whiteSpace=wrap;overflow=hidden;rotatable=0;points=[];portConstraint=eastwest;part=1;" parent="arhuPyZS-XFLnQBNVv1O-108" vertex="1" connectable="0">
          <mxGeometry width="30" height="64" as="geometry" />
        </mxCell>
        <mxCell id="arhuPyZS-XFLnQBNVv1O-110" value="hall_id" style="shape=partialRectangle;top=0;left=0;right=0;bottom=0;html=1;align=left;verticalAlign=top;fillColor=none;spacingLeft=34;spacingRight=4;whiteSpace=wrap;overflow=hidden;rotatable=0;points=[[0,0.5],[1,0.5]];portConstraint=eastwest;dropTarget=0;" parent="arhuPyZS-XFLnQBNVv1O-107" vertex="1">
          <mxGeometry y="90" width="160" height="26" as="geometry" />
        </mxCell>
        <mxCell id="arhuPyZS-XFLnQBNVv1O-111" value="" style="shape=partialRectangle;top=0;left=0;bottom=0;html=1;fillColor=none;align=left;verticalAlign=top;spacingLeft=4;spacingRight=4;whiteSpace=wrap;overflow=hidden;rotatable=0;points=[];portConstraint=eastwest;part=1;" parent="arhuPyZS-XFLnQBNVv1O-110" vertex="1" connectable="0">
          <mxGeometry width="30" height="26" as="geometry" />
        </mxCell>
        <mxCell id="arhuPyZS-XFLnQBNVv1O-112" value="film_id" style="shape=partialRectangle;top=0;left=0;right=0;bottom=0;html=1;align=left;verticalAlign=top;fillColor=none;spacingLeft=34;spacingRight=4;whiteSpace=wrap;overflow=hidden;rotatable=0;points=[[0,0.5],[1,0.5]];portConstraint=eastwest;dropTarget=0;" parent="arhuPyZS-XFLnQBNVv1O-107" vertex="1">
          <mxGeometry y="116" width="160" height="26" as="geometry" />
        </mxCell>
        <mxCell id="arhuPyZS-XFLnQBNVv1O-113" value="" style="shape=partialRectangle;top=0;left=0;bottom=0;html=1;fillColor=none;align=left;verticalAlign=top;spacingLeft=4;spacingRight=4;whiteSpace=wrap;overflow=hidden;rotatable=0;points=[];portConstraint=eastwest;part=1;" parent="arhuPyZS-XFLnQBNVv1O-112" vertex="1" connectable="0">
          <mxGeometry width="30" height="26" as="geometry" />
        </mxCell>
        <mxCell id="yUL1yEBo_6MAkZ0JsvIg-3" value="created_at" style="shape=partialRectangle;top=0;left=0;right=0;bottom=0;html=1;align=left;verticalAlign=top;fillColor=none;spacingLeft=34;spacingRight=4;whiteSpace=wrap;overflow=hidden;rotatable=0;points=[[0,0.5],[1,0.5]];portConstraint=eastwest;dropTarget=0;" vertex="1" parent="arhuPyZS-XFLnQBNVv1O-107">
          <mxGeometry y="142" width="160" height="26" as="geometry" />
        </mxCell>
        <mxCell id="yUL1yEBo_6MAkZ0JsvIg-4" value="" style="shape=partialRectangle;top=0;left=0;bottom=0;html=1;fillColor=none;align=left;verticalAlign=top;spacingLeft=4;spacingRight=4;whiteSpace=wrap;overflow=hidden;rotatable=0;points=[];portConstraint=eastwest;part=1;" vertex="1" connectable="0" parent="yUL1yEBo_6MAkZ0JsvIg-3">
          <mxGeometry width="30" height="26" as="geometry" />
        </mxCell>
        <mxCell id="arhuPyZS-XFLnQBNVv1O-114" value="updated_at" style="shape=partialRectangle;top=0;left=0;right=0;bottom=0;html=1;align=left;verticalAlign=top;fillColor=none;spacingLeft=34;spacingRight=4;whiteSpace=wrap;overflow=hidden;rotatable=0;points=[[0,0.5],[1,0.5]];portConstraint=eastwest;dropTarget=0;" parent="arhuPyZS-XFLnQBNVv1O-107" vertex="1">
          <mxGeometry y="168" width="160" height="26" as="geometry" />
        </mxCell>
        <mxCell id="arhuPyZS-XFLnQBNVv1O-115" value="" style="shape=partialRectangle;top=0;left=0;bottom=0;html=1;fillColor=none;align=left;verticalAlign=top;spacingLeft=4;spacingRight=4;whiteSpace=wrap;overflow=hidden;rotatable=0;points=[];portConstraint=eastwest;part=1;" parent="arhuPyZS-XFLnQBNVv1O-114" vertex="1" connectable="0">
          <mxGeometry width="30" height="26" as="geometry" />
        </mxCell>
        <mxCell id="arhuPyZS-XFLnQBNVv1O-116" value="" style="shape=partialRectangle;top=0;left=0;right=0;bottom=0;html=1;align=left;verticalAlign=top;fillColor=none;spacingLeft=34;spacingRight=4;whiteSpace=wrap;overflow=hidden;rotatable=0;points=[[0,0.5],[1,0.5]];portConstraint=eastwest;dropTarget=0;" parent="arhuPyZS-XFLnQBNVv1O-107" vertex="1">
          <mxGeometry y="194" width="160" height="10" as="geometry" />
        </mxCell>
        <mxCell id="arhuPyZS-XFLnQBNVv1O-117" value="" style="shape=partialRectangle;top=0;left=0;bottom=0;html=1;fillColor=none;align=left;verticalAlign=top;spacingLeft=4;spacingRight=4;whiteSpace=wrap;overflow=hidden;rotatable=0;points=[];portConstraint=eastwest;part=1;" parent="arhuPyZS-XFLnQBNVv1O-116" vertex="1" connectable="0">
          <mxGeometry width="30" height="10" as="geometry" />
        </mxCell>
        <mxCell id="arhuPyZS-XFLnQBNVv1O-118" value="&lt;span style=&quot;white-space: pre-wrap; background-color: rgb(228, 228, 228);&quot;&gt;&lt;font style=&quot;&quot;&gt;Hall&lt;/font&gt;&lt;/span&gt;" style="swimlane;html=1;fontStyle=0;childLayout=stackLayout;horizontal=1;startSize=26;fillColor=#e0e0e0;horizontalStack=0;resizeParent=1;resizeLast=0;collapsible=1;marginBottom=0;swimlaneFillColor=#ffffff;align=center;rounded=0;shadow=0;comic=0;labelBackgroundColor=none;strokeWidth=1;fontFamily=Verdana;fontSize=14" parent="1" vertex="1">
          <mxGeometry x="880" y="320" width="160" height="170" as="geometry">
            <mxRectangle x="40" y="368" width="70" height="30" as="alternateBounds" />
          </mxGeometry>
        </mxCell>
        <mxCell id="arhuPyZS-XFLnQBNVv1O-119" value="uniqueId" style="shape=partialRectangle;top=0;left=0;right=0;bottom=1;html=1;align=left;verticalAlign=middle;fillColor=none;spacingLeft=34;spacingRight=4;whiteSpace=wrap;overflow=hidden;rotatable=0;points=[[0,0.5],[1,0.5]];portConstraint=eastwest;dropTarget=0;fontStyle=5;" parent="arhuPyZS-XFLnQBNVv1O-118" vertex="1">
          <mxGeometry y="26" width="160" height="30" as="geometry" />
        </mxCell>
        <mxCell id="arhuPyZS-XFLnQBNVv1O-120" value="PK" style="shape=partialRectangle;top=0;left=0;bottom=0;html=1;fillColor=none;align=left;verticalAlign=middle;spacingLeft=4;spacingRight=4;whiteSpace=wrap;overflow=hidden;rotatable=0;points=[];portConstraint=eastwest;part=1;" parent="arhuPyZS-XFLnQBNVv1O-119" vertex="1" connectable="0">
          <mxGeometry width="30" height="30" as="geometry" />
        </mxCell>
        <mxCell id="arhuPyZS-XFLnQBNVv1O-121" value="is_active" style="shape=partialRectangle;top=0;left=0;right=0;bottom=0;html=1;align=left;verticalAlign=top;fillColor=none;spacingLeft=34;spacingRight=4;whiteSpace=wrap;overflow=hidden;rotatable=0;points=[[0,0.5],[1,0.5]];portConstraint=eastwest;dropTarget=0;" parent="arhuPyZS-XFLnQBNVv1O-118" vertex="1">
          <mxGeometry y="56" width="160" height="26" as="geometry" />
        </mxCell>
        <mxCell id="arhuPyZS-XFLnQBNVv1O-122" value="" style="shape=partialRectangle;top=0;left=0;bottom=0;html=1;fillColor=none;align=left;verticalAlign=top;spacingLeft=4;spacingRight=4;whiteSpace=wrap;overflow=hidden;rotatable=0;points=[];portConstraint=eastwest;part=1;" parent="arhuPyZS-XFLnQBNVv1O-121" vertex="1" connectable="0">
          <mxGeometry width="30" height="26" as="geometry" />
        </mxCell>
        <mxCell id="arhuPyZS-XFLnQBNVv1O-123" value="name" style="shape=partialRectangle;top=0;left=0;right=0;bottom=0;html=1;align=left;verticalAlign=top;fillColor=none;spacingLeft=34;spacingRight=4;whiteSpace=wrap;overflow=hidden;rotatable=0;points=[[0,0.5],[1,0.5]];portConstraint=eastwest;dropTarget=0;" parent="arhuPyZS-XFLnQBNVv1O-118" vertex="1">
          <mxGeometry y="82" width="160" height="26" as="geometry" />
        </mxCell>
        <mxCell id="arhuPyZS-XFLnQBNVv1O-124" value="" style="shape=partialRectangle;top=0;left=0;bottom=0;html=1;fillColor=none;align=left;verticalAlign=top;spacingLeft=4;spacingRight=4;whiteSpace=wrap;overflow=hidden;rotatable=0;points=[];portConstraint=eastwest;part=1;" parent="arhuPyZS-XFLnQBNVv1O-123" vertex="1" connectable="0">
          <mxGeometry width="30" height="26" as="geometry" />
        </mxCell>
        <mxCell id="arhuPyZS-XFLnQBNVv1O-184" value="&lt;span style=&quot;white-space-collapse: preserve;&quot; data-src-align=&quot;0:9&quot; class=&quot;EzKURWReUAB5oZgtQNkl&quot;&gt;category&lt;/span&gt;" style="shape=partialRectangle;top=0;left=0;right=0;bottom=0;html=1;align=left;verticalAlign=top;fillColor=none;spacingLeft=34;spacingRight=4;whiteSpace=wrap;overflow=hidden;rotatable=0;points=[[0,0.5],[1,0.5]];portConstraint=eastwest;dropTarget=0;" parent="arhuPyZS-XFLnQBNVv1O-118" vertex="1">
          <mxGeometry y="108" width="160" height="26" as="geometry" />
        </mxCell>
        <mxCell id="arhuPyZS-XFLnQBNVv1O-185" value="" style="shape=partialRectangle;top=0;left=0;bottom=0;html=1;fillColor=none;align=left;verticalAlign=top;spacingLeft=4;spacingRight=4;whiteSpace=wrap;overflow=hidden;rotatable=0;points=[];portConstraint=eastwest;part=1;" parent="arhuPyZS-XFLnQBNVv1O-184" vertex="1" connectable="0">
          <mxGeometry width="30" height="26" as="geometry" />
        </mxCell>
        <mxCell id="arhuPyZS-XFLnQBNVv1O-186" value="cinema_id" style="shape=partialRectangle;top=0;left=0;right=0;bottom=0;html=1;align=left;verticalAlign=top;fillColor=none;spacingLeft=34;spacingRight=4;whiteSpace=wrap;overflow=hidden;rotatable=0;points=[[0,0.5],[1,0.5]];portConstraint=eastwest;dropTarget=0;" parent="arhuPyZS-XFLnQBNVv1O-118" vertex="1">
          <mxGeometry y="134" width="160" height="36" as="geometry" />
        </mxCell>
        <mxCell id="arhuPyZS-XFLnQBNVv1O-187" value="" style="shape=partialRectangle;top=0;left=0;bottom=0;html=1;fillColor=none;align=left;verticalAlign=top;spacingLeft=4;spacingRight=4;whiteSpace=wrap;overflow=hidden;rotatable=0;points=[];portConstraint=eastwest;part=1;" parent="arhuPyZS-XFLnQBNVv1O-186" vertex="1" connectable="0">
          <mxGeometry width="30" height="36" as="geometry" />
        </mxCell>
        <mxCell id="arhuPyZS-XFLnQBNVv1O-129" value="&lt;span style=&quot;white-space: pre-wrap; background-color: rgb(228, 228, 228);&quot;&gt;&lt;font style=&quot;&quot;&gt;Cinema&lt;/font&gt;&lt;/span&gt;" style="swimlane;html=1;fontStyle=0;childLayout=stackLayout;horizontal=1;startSize=26;fillColor=#e0e0e0;horizontalStack=0;resizeParent=1;resizeLast=0;collapsible=1;marginBottom=0;swimlaneFillColor=#ffffff;align=center;rounded=0;shadow=0;comic=0;labelBackgroundColor=none;strokeWidth=1;fontFamily=Verdana;fontSize=14" parent="1" vertex="1">
          <mxGeometry x="1160" y="320" width="160" height="144" as="geometry">
            <mxRectangle x="40" y="368" width="70" height="30" as="alternateBounds" />
          </mxGeometry>
        </mxCell>
        <mxCell id="arhuPyZS-XFLnQBNVv1O-130" value="uniqueId" style="shape=partialRectangle;top=0;left=0;right=0;bottom=1;html=1;align=left;verticalAlign=middle;fillColor=none;spacingLeft=34;spacingRight=4;whiteSpace=wrap;overflow=hidden;rotatable=0;points=[[0,0.5],[1,0.5]];portConstraint=eastwest;dropTarget=0;fontStyle=5;" parent="arhuPyZS-XFLnQBNVv1O-129" vertex="1">
          <mxGeometry y="26" width="160" height="30" as="geometry" />
        </mxCell>
        <mxCell id="arhuPyZS-XFLnQBNVv1O-131" value="PK" style="shape=partialRectangle;top=0;left=0;bottom=0;html=1;fillColor=none;align=left;verticalAlign=middle;spacingLeft=4;spacingRight=4;whiteSpace=wrap;overflow=hidden;rotatable=0;points=[];portConstraint=eastwest;part=1;" parent="arhuPyZS-XFLnQBNVv1O-130" vertex="1" connectable="0">
          <mxGeometry width="30" height="30" as="geometry" />
        </mxCell>
        <mxCell id="arhuPyZS-XFLnQBNVv1O-132" value="name" style="shape=partialRectangle;top=0;left=0;right=0;bottom=0;html=1;align=left;verticalAlign=top;fillColor=none;spacingLeft=34;spacingRight=4;whiteSpace=wrap;overflow=hidden;rotatable=0;points=[[0,0.5],[1,0.5]];portConstraint=eastwest;dropTarget=0;" parent="arhuPyZS-XFLnQBNVv1O-129" vertex="1">
          <mxGeometry y="56" width="160" height="26" as="geometry" />
        </mxCell>
        <mxCell id="arhuPyZS-XFLnQBNVv1O-133" value="" style="shape=partialRectangle;top=0;left=0;bottom=0;html=1;fillColor=none;align=left;verticalAlign=top;spacingLeft=4;spacingRight=4;whiteSpace=wrap;overflow=hidden;rotatable=0;points=[];portConstraint=eastwest;part=1;" parent="arhuPyZS-XFLnQBNVv1O-132" vertex="1" connectable="0">
          <mxGeometry width="30" height="26" as="geometry" />
        </mxCell>
        <mxCell id="arhuPyZS-XFLnQBNVv1O-134" value="city" style="shape=partialRectangle;top=0;left=0;right=0;bottom=0;html=1;align=left;verticalAlign=top;fillColor=none;spacingLeft=34;spacingRight=4;whiteSpace=wrap;overflow=hidden;rotatable=0;points=[[0,0.5],[1,0.5]];portConstraint=eastwest;dropTarget=0;" parent="arhuPyZS-XFLnQBNVv1O-129" vertex="1">
          <mxGeometry y="82" width="160" height="26" as="geometry" />
        </mxCell>
        <mxCell id="arhuPyZS-XFLnQBNVv1O-135" value="" style="shape=partialRectangle;top=0;left=0;bottom=0;html=1;fillColor=none;align=left;verticalAlign=top;spacingLeft=4;spacingRight=4;whiteSpace=wrap;overflow=hidden;rotatable=0;points=[];portConstraint=eastwest;part=1;" parent="arhuPyZS-XFLnQBNVv1O-134" vertex="1" connectable="0">
          <mxGeometry width="30" height="26" as="geometry" />
        </mxCell>
        <mxCell id="arhuPyZS-XFLnQBNVv1O-136" value="address" style="shape=partialRectangle;top=0;left=0;right=0;bottom=0;html=1;align=left;verticalAlign=top;fillColor=none;spacingLeft=34;spacingRight=4;whiteSpace=wrap;overflow=hidden;rotatable=0;points=[[0,0.5],[1,0.5]];portConstraint=eastwest;dropTarget=0;" parent="arhuPyZS-XFLnQBNVv1O-129" vertex="1">
          <mxGeometry y="108" width="160" height="26" as="geometry" />
        </mxCell>
        <mxCell id="arhuPyZS-XFLnQBNVv1O-137" value="" style="shape=partialRectangle;top=0;left=0;bottom=0;html=1;fillColor=none;align=left;verticalAlign=top;spacingLeft=4;spacingRight=4;whiteSpace=wrap;overflow=hidden;rotatable=0;points=[];portConstraint=eastwest;part=1;" parent="arhuPyZS-XFLnQBNVv1O-136" vertex="1" connectable="0">
          <mxGeometry width="30" height="26" as="geometry" />
        </mxCell>
        <mxCell id="arhuPyZS-XFLnQBNVv1O-138" value="" style="shape=partialRectangle;top=0;left=0;right=0;bottom=0;html=1;align=left;verticalAlign=top;fillColor=none;spacingLeft=34;spacingRight=4;whiteSpace=wrap;overflow=hidden;rotatable=0;points=[[0,0.5],[1,0.5]];portConstraint=eastwest;dropTarget=0;" parent="arhuPyZS-XFLnQBNVv1O-129" vertex="1">
          <mxGeometry y="134" width="160" height="10" as="geometry" />
        </mxCell>
        <mxCell id="arhuPyZS-XFLnQBNVv1O-139" value="" style="shape=partialRectangle;top=0;left=0;bottom=0;html=1;fillColor=none;align=left;verticalAlign=top;spacingLeft=4;spacingRight=4;whiteSpace=wrap;overflow=hidden;rotatable=0;points=[];portConstraint=eastwest;part=1;" parent="arhuPyZS-XFLnQBNVv1O-138" vertex="1" connectable="0">
          <mxGeometry width="30" height="10" as="geometry" />
        </mxCell>
        <mxCell id="arhuPyZS-XFLnQBNVv1O-140" value="&lt;span style=&quot;white-space: pre-wrap; background-color: rgb(228, 228, 228);&quot;&gt;&lt;font style=&quot;&quot;&gt;Film&lt;/font&gt;&lt;/span&gt;" style="swimlane;html=1;fontStyle=0;childLayout=stackLayout;horizontal=1;startSize=26;fillColor=#e0e0e0;horizontalStack=0;resizeParent=1;resizeLast=0;collapsible=1;marginBottom=0;swimlaneFillColor=#ffffff;align=center;rounded=0;shadow=0;comic=0;labelBackgroundColor=none;strokeWidth=1;fontFamily=Verdana;fontSize=14" parent="1" vertex="1">
          <mxGeometry x="880" y="520" width="160" height="300" as="geometry">
            <mxRectangle x="40" y="368" width="70" height="30" as="alternateBounds" />
          </mxGeometry>
        </mxCell>
        <mxCell id="arhuPyZS-XFLnQBNVv1O-141" value="uniqueId" style="shape=partialRectangle;top=0;left=0;right=0;bottom=1;html=1;align=left;verticalAlign=middle;fillColor=none;spacingLeft=34;spacingRight=4;whiteSpace=wrap;overflow=hidden;rotatable=0;points=[[0,0.5],[1,0.5]];portConstraint=eastwest;dropTarget=0;fontStyle=5;" parent="arhuPyZS-XFLnQBNVv1O-140" vertex="1">
          <mxGeometry y="26" width="160" height="30" as="geometry" />
        </mxCell>
        <mxCell id="arhuPyZS-XFLnQBNVv1O-142" value="PK" style="shape=partialRectangle;top=0;left=0;bottom=0;html=1;fillColor=none;align=left;verticalAlign=middle;spacingLeft=4;spacingRight=4;whiteSpace=wrap;overflow=hidden;rotatable=0;points=[];portConstraint=eastwest;part=1;" parent="arhuPyZS-XFLnQBNVv1O-141" vertex="1" connectable="0">
          <mxGeometry width="30" height="30" as="geometry" />
        </mxCell>
        <mxCell id="arhuPyZS-XFLnQBNVv1O-143" value="sort" style="shape=partialRectangle;top=0;left=0;right=0;bottom=0;html=1;align=left;verticalAlign=top;fillColor=none;spacingLeft=34;spacingRight=4;whiteSpace=wrap;overflow=hidden;rotatable=0;points=[[0,0.5],[1,0.5]];portConstraint=eastwest;dropTarget=0;" parent="arhuPyZS-XFLnQBNVv1O-140" vertex="1">
          <mxGeometry y="56" width="160" height="26" as="geometry" />
        </mxCell>
        <mxCell id="arhuPyZS-XFLnQBNVv1O-144" value="" style="shape=partialRectangle;top=0;left=0;bottom=0;html=1;fillColor=none;align=left;verticalAlign=top;spacingLeft=4;spacingRight=4;whiteSpace=wrap;overflow=hidden;rotatable=0;points=[];portConstraint=eastwest;part=1;" parent="arhuPyZS-XFLnQBNVv1O-143" vertex="1" connectable="0">
          <mxGeometry width="30" height="26" as="geometry" />
        </mxCell>
        <mxCell id="arhuPyZS-XFLnQBNVv1O-145" value="title" style="shape=partialRectangle;top=0;left=0;right=0;bottom=0;html=1;align=left;verticalAlign=top;fillColor=none;spacingLeft=34;spacingRight=4;whiteSpace=wrap;overflow=hidden;rotatable=0;points=[[0,0.5],[1,0.5]];portConstraint=eastwest;dropTarget=0;" parent="arhuPyZS-XFLnQBNVv1O-140" vertex="1">
          <mxGeometry y="82" width="160" height="26" as="geometry" />
        </mxCell>
        <mxCell id="arhuPyZS-XFLnQBNVv1O-146" value="" style="shape=partialRectangle;top=0;left=0;bottom=0;html=1;fillColor=none;align=left;verticalAlign=top;spacingLeft=4;spacingRight=4;whiteSpace=wrap;overflow=hidden;rotatable=0;points=[];portConstraint=eastwest;part=1;" parent="arhuPyZS-XFLnQBNVv1O-145" vertex="1" connectable="0">
          <mxGeometry width="30" height="26" as="geometry" />
        </mxCell>
        <mxCell id="arhuPyZS-XFLnQBNVv1O-147" value="actors" style="shape=partialRectangle;top=0;left=0;right=0;bottom=0;html=1;align=left;verticalAlign=top;fillColor=none;spacingLeft=34;spacingRight=4;whiteSpace=wrap;overflow=hidden;rotatable=0;points=[[0,0.5],[1,0.5]];portConstraint=eastwest;dropTarget=0;" parent="arhuPyZS-XFLnQBNVv1O-140" vertex="1">
          <mxGeometry y="108" width="160" height="26" as="geometry" />
        </mxCell>
        <mxCell id="arhuPyZS-XFLnQBNVv1O-148" value="" style="shape=partialRectangle;top=0;left=0;bottom=0;html=1;fillColor=none;align=left;verticalAlign=top;spacingLeft=4;spacingRight=4;whiteSpace=wrap;overflow=hidden;rotatable=0;points=[];portConstraint=eastwest;part=1;" parent="arhuPyZS-XFLnQBNVv1O-147" vertex="1" connectable="0">
          <mxGeometry width="30" height="26" as="geometry" />
        </mxCell>
        <mxCell id="arhuPyZS-XFLnQBNVv1O-149" value="description" style="shape=partialRectangle;top=0;left=0;right=0;bottom=0;html=1;align=left;verticalAlign=top;fillColor=none;spacingLeft=34;spacingRight=4;whiteSpace=wrap;overflow=hidden;rotatable=0;points=[[0,0.5],[1,0.5]];portConstraint=eastwest;dropTarget=0;" parent="arhuPyZS-XFLnQBNVv1O-140" vertex="1">
          <mxGeometry y="134" width="160" height="26" as="geometry" />
        </mxCell>
        <mxCell id="arhuPyZS-XFLnQBNVv1O-150" value="" style="shape=partialRectangle;top=0;left=0;bottom=0;html=1;fillColor=none;align=left;verticalAlign=top;spacingLeft=4;spacingRight=4;whiteSpace=wrap;overflow=hidden;rotatable=0;points=[];portConstraint=eastwest;part=1;" parent="arhuPyZS-XFLnQBNVv1O-149" vertex="1" connectable="0">
          <mxGeometry width="30" height="26" as="geometry" />
        </mxCell>
        <mxCell id="arhuPyZS-XFLnQBNVv1O-155" value="year_release" style="shape=partialRectangle;top=0;left=0;right=0;bottom=0;html=1;align=left;verticalAlign=top;fillColor=none;spacingLeft=34;spacingRight=4;whiteSpace=wrap;overflow=hidden;rotatable=0;points=[[0,0.5],[1,0.5]];portConstraint=eastwest;dropTarget=0;" parent="arhuPyZS-XFLnQBNVv1O-140" vertex="1">
          <mxGeometry y="160" width="160" height="26" as="geometry" />
        </mxCell>
        <mxCell id="arhuPyZS-XFLnQBNVv1O-156" value="" style="shape=partialRectangle;top=0;left=0;bottom=0;html=1;fillColor=none;align=left;verticalAlign=top;spacingLeft=4;spacingRight=4;whiteSpace=wrap;overflow=hidden;rotatable=0;points=[];portConstraint=eastwest;part=1;" parent="arhuPyZS-XFLnQBNVv1O-155" vertex="1" connectable="0">
          <mxGeometry width="30" height="26" as="geometry" />
        </mxCell>
        <mxCell id="arhuPyZS-XFLnQBNVv1O-161" value="genre" style="shape=partialRectangle;top=0;left=0;right=0;bottom=0;html=1;align=left;verticalAlign=top;fillColor=none;spacingLeft=34;spacingRight=4;whiteSpace=wrap;overflow=hidden;rotatable=0;points=[[0,0.5],[1,0.5]];portConstraint=eastwest;dropTarget=0;" parent="arhuPyZS-XFLnQBNVv1O-140" vertex="1">
          <mxGeometry y="186" width="160" height="26" as="geometry" />
        </mxCell>
        <mxCell id="arhuPyZS-XFLnQBNVv1O-162" value="" style="shape=partialRectangle;top=0;left=0;bottom=0;html=1;fillColor=none;align=left;verticalAlign=top;spacingLeft=4;spacingRight=4;whiteSpace=wrap;overflow=hidden;rotatable=0;points=[];portConstraint=eastwest;part=1;" parent="arhuPyZS-XFLnQBNVv1O-161" vertex="1" connectable="0">
          <mxGeometry width="30" height="26" as="geometry" />
        </mxCell>
        <mxCell id="arhuPyZS-XFLnQBNVv1O-159" value="limitation" style="shape=partialRectangle;top=0;left=0;right=0;bottom=0;html=1;align=left;verticalAlign=top;fillColor=none;spacingLeft=34;spacingRight=4;whiteSpace=wrap;overflow=hidden;rotatable=0;points=[[0,0.5],[1,0.5]];portConstraint=eastwest;dropTarget=0;" parent="arhuPyZS-XFLnQBNVv1O-140" vertex="1">
          <mxGeometry y="212" width="160" height="26" as="geometry" />
        </mxCell>
        <mxCell id="arhuPyZS-XFLnQBNVv1O-160" value="" style="shape=partialRectangle;top=0;left=0;bottom=0;html=1;fillColor=none;align=left;verticalAlign=top;spacingLeft=4;spacingRight=4;whiteSpace=wrap;overflow=hidden;rotatable=0;points=[];portConstraint=eastwest;part=1;" parent="arhuPyZS-XFLnQBNVv1O-159" vertex="1" connectable="0">
          <mxGeometry width="30" height="26" as="geometry" />
        </mxCell>
        <mxCell id="arhuPyZS-XFLnQBNVv1O-163" value="show_period_from" style="shape=partialRectangle;top=0;left=0;right=0;bottom=0;html=1;align=left;verticalAlign=top;fillColor=none;spacingLeft=34;spacingRight=4;whiteSpace=wrap;overflow=hidden;rotatable=0;points=[[0,0.5],[1,0.5]];portConstraint=eastwest;dropTarget=0;" parent="arhuPyZS-XFLnQBNVv1O-140" vertex="1">
          <mxGeometry y="238" width="160" height="26" as="geometry" />
        </mxCell>
        <mxCell id="arhuPyZS-XFLnQBNVv1O-164" value="" style="shape=partialRectangle;top=0;left=0;bottom=0;html=1;fillColor=none;align=left;verticalAlign=top;spacingLeft=4;spacingRight=4;whiteSpace=wrap;overflow=hidden;rotatable=0;points=[];portConstraint=eastwest;part=1;" parent="arhuPyZS-XFLnQBNVv1O-163" vertex="1" connectable="0">
          <mxGeometry width="30" height="26" as="geometry" />
        </mxCell>
        <mxCell id="arhuPyZS-XFLnQBNVv1O-165" value="show_period_to" style="shape=partialRectangle;top=0;left=0;right=0;bottom=0;html=1;align=left;verticalAlign=top;fillColor=none;spacingLeft=34;spacingRight=4;whiteSpace=wrap;overflow=hidden;rotatable=0;points=[[0,0.5],[1,0.5]];portConstraint=eastwest;dropTarget=0;" parent="arhuPyZS-XFLnQBNVv1O-140" vertex="1">
          <mxGeometry y="264" width="160" height="36" as="geometry" />
        </mxCell>
        <mxCell id="arhuPyZS-XFLnQBNVv1O-166" value="" style="shape=partialRectangle;top=0;left=0;bottom=0;html=1;fillColor=none;align=left;verticalAlign=top;spacingLeft=4;spacingRight=4;whiteSpace=wrap;overflow=hidden;rotatable=0;points=[];portConstraint=eastwest;part=1;" parent="arhuPyZS-XFLnQBNVv1O-165" vertex="1" connectable="0">
          <mxGeometry width="30" height="36" as="geometry" />
        </mxCell>
        <mxCell id="arhuPyZS-XFLnQBNVv1O-167" value="&lt;span style=&quot;white-space: pre-wrap; background-color: rgb(228, 228, 228);&quot;&gt;&lt;font style=&quot;&quot;&gt;Place&lt;/font&gt;&lt;/span&gt;" style="swimlane;html=1;fontStyle=0;childLayout=stackLayout;horizontal=1;startSize=26;fillColor=#e0e0e0;horizontalStack=0;resizeParent=1;resizeLast=0;collapsible=1;marginBottom=0;swimlaneFillColor=#ffffff;align=center;rounded=0;shadow=0;comic=0;labelBackgroundColor=none;strokeWidth=1;fontFamily=Verdana;fontSize=14" parent="1" vertex="1">
          <mxGeometry x="600" y="640" width="160" height="170" as="geometry">
            <mxRectangle x="40" y="368" width="70" height="30" as="alternateBounds" />
          </mxGeometry>
        </mxCell>
        <mxCell id="arhuPyZS-XFLnQBNVv1O-168" value="uniqueId" style="shape=partialRectangle;top=0;left=0;right=0;bottom=1;html=1;align=left;verticalAlign=middle;fillColor=none;spacingLeft=34;spacingRight=4;whiteSpace=wrap;overflow=hidden;rotatable=0;points=[[0,0.5],[1,0.5]];portConstraint=eastwest;dropTarget=0;fontStyle=5;" parent="arhuPyZS-XFLnQBNVv1O-167" vertex="1">
          <mxGeometry y="26" width="160" height="30" as="geometry" />
        </mxCell>
        <mxCell id="arhuPyZS-XFLnQBNVv1O-169" value="PK" style="shape=partialRectangle;top=0;left=0;bottom=0;html=1;fillColor=none;align=left;verticalAlign=middle;spacingLeft=4;spacingRight=4;whiteSpace=wrap;overflow=hidden;rotatable=0;points=[];portConstraint=eastwest;part=1;" parent="arhuPyZS-XFLnQBNVv1O-168" vertex="1" connectable="0">
          <mxGeometry width="30" height="30" as="geometry" />
        </mxCell>
        <mxCell id="arhuPyZS-XFLnQBNVv1O-170" value="hall_id" style="shape=partialRectangle;top=0;left=0;right=0;bottom=0;html=1;align=left;verticalAlign=top;fillColor=none;spacingLeft=34;spacingRight=4;whiteSpace=wrap;overflow=hidden;rotatable=0;points=[[0,0.5],[1,0.5]];portConstraint=eastwest;dropTarget=0;" parent="arhuPyZS-XFLnQBNVv1O-167" vertex="1">
          <mxGeometry y="56" width="160" height="26" as="geometry" />
        </mxCell>
        <mxCell id="arhuPyZS-XFLnQBNVv1O-171" value="" style="shape=partialRectangle;top=0;left=0;bottom=0;html=1;fillColor=none;align=left;verticalAlign=top;spacingLeft=4;spacingRight=4;whiteSpace=wrap;overflow=hidden;rotatable=0;points=[];portConstraint=eastwest;part=1;" parent="arhuPyZS-XFLnQBNVv1O-170" vertex="1" connectable="0">
          <mxGeometry width="30" height="26" as="geometry" />
        </mxCell>
        <mxCell id="arhuPyZS-XFLnQBNVv1O-172" value="number" style="shape=partialRectangle;top=0;left=0;right=0;bottom=0;html=1;align=left;verticalAlign=top;fillColor=none;spacingLeft=34;spacingRight=4;whiteSpace=wrap;overflow=hidden;rotatable=0;points=[[0,0.5],[1,0.5]];portConstraint=eastwest;dropTarget=0;" parent="arhuPyZS-XFLnQBNVv1O-167" vertex="1">
          <mxGeometry y="82" width="160" height="26" as="geometry" />
        </mxCell>
        <mxCell id="arhuPyZS-XFLnQBNVv1O-173" value="" style="shape=partialRectangle;top=0;left=0;bottom=0;html=1;fillColor=none;align=left;verticalAlign=top;spacingLeft=4;spacingRight=4;whiteSpace=wrap;overflow=hidden;rotatable=0;points=[];portConstraint=eastwest;part=1;" parent="arhuPyZS-XFLnQBNVv1O-172" vertex="1" connectable="0">
          <mxGeometry width="30" height="26" as="geometry" />
        </mxCell>
        <mxCell id="arhuPyZS-XFLnQBNVv1O-174" value="range" style="shape=partialRectangle;top=0;left=0;right=0;bottom=0;html=1;align=left;verticalAlign=top;fillColor=none;spacingLeft=34;spacingRight=4;whiteSpace=wrap;overflow=hidden;rotatable=0;points=[[0,0.5],[1,0.5]];portConstraint=eastwest;dropTarget=0;" parent="arhuPyZS-XFLnQBNVv1O-167" vertex="1">
          <mxGeometry y="108" width="160" height="26" as="geometry" />
        </mxCell>
        <mxCell id="arhuPyZS-XFLnQBNVv1O-175" value="" style="shape=partialRectangle;top=0;left=0;bottom=0;html=1;fillColor=none;align=left;verticalAlign=top;spacingLeft=4;spacingRight=4;whiteSpace=wrap;overflow=hidden;rotatable=0;points=[];portConstraint=eastwest;part=1;" parent="arhuPyZS-XFLnQBNVv1O-174" vertex="1" connectable="0">
          <mxGeometry width="30" height="26" as="geometry" />
        </mxCell>
        <mxCell id="arhuPyZS-XFLnQBNVv1O-176" value="type" style="shape=partialRectangle;top=0;left=0;right=0;bottom=0;html=1;align=left;verticalAlign=top;fillColor=none;spacingLeft=34;spacingRight=4;whiteSpace=wrap;overflow=hidden;rotatable=0;points=[[0,0.5],[1,0.5]];portConstraint=eastwest;dropTarget=0;" parent="arhuPyZS-XFLnQBNVv1O-167" vertex="1">
          <mxGeometry y="134" width="160" height="36" as="geometry" />
        </mxCell>
        <mxCell id="arhuPyZS-XFLnQBNVv1O-177" value="" style="shape=partialRectangle;top=0;left=0;bottom=0;html=1;fillColor=none;align=left;verticalAlign=top;spacingLeft=4;spacingRight=4;whiteSpace=wrap;overflow=hidden;rotatable=0;points=[];portConstraint=eastwest;part=1;" parent="arhuPyZS-XFLnQBNVv1O-176" vertex="1" connectable="0">
          <mxGeometry width="30" height="36" as="geometry" />
        </mxCell>
        <mxCell id="arhuPyZS-XFLnQBNVv1O-206" value="Price_list" style="swimlane;html=1;fontStyle=0;childLayout=stackLayout;horizontal=1;startSize=26;fillColor=#e0e0e0;horizontalStack=0;resizeParent=1;resizeLast=0;collapsible=1;marginBottom=0;swimlaneFillColor=#ffffff;align=center;rounded=0;shadow=0;comic=0;labelBackgroundColor=none;strokeWidth=1;fontFamily=Verdana;fontSize=14" parent="1" vertex="1">
          <mxGeometry x="320" y="640" width="160" height="150" as="geometry" />
        </mxCell>
        <mxCell id="arhuPyZS-XFLnQBNVv1O-207" value="date_ticket" style="shape=partialRectangle;top=0;left=0;right=0;bottom=0;html=1;align=left;verticalAlign=middle;fillColor=none;spacingLeft=60;spacingRight=4;whiteSpace=wrap;overflow=hidden;rotatable=0;points=[[0,0.5],[1,0.5]];portConstraint=eastwest;dropTarget=0;fontStyle=5;" parent="arhuPyZS-XFLnQBNVv1O-206" vertex="1">
          <mxGeometry y="26" width="160" height="30" as="geometry" />
        </mxCell>
        <mxCell id="arhuPyZS-XFLnQBNVv1O-208" value="PK,FK1" style="shape=partialRectangle;fontStyle=1;top=0;left=0;bottom=0;html=1;fillColor=none;align=left;verticalAlign=middle;spacingLeft=4;spacingRight=4;whiteSpace=wrap;overflow=hidden;rotatable=0;points=[];portConstraint=eastwest;part=1;" parent="arhuPyZS-XFLnQBNVv1O-207" vertex="1" connectable="0">
          <mxGeometry width="56" height="30" as="geometry" />
        </mxCell>
        <mxCell id="arhuPyZS-XFLnQBNVv1O-220" value="session_id" style="shape=partialRectangle;top=0;left=0;right=0;bottom=0;html=1;align=left;verticalAlign=middle;fillColor=none;spacingLeft=60;spacingRight=4;whiteSpace=wrap;overflow=hidden;rotatable=0;points=[[0,0.5],[1,0.5]];portConstraint=eastwest;dropTarget=0;fontStyle=5;" parent="arhuPyZS-XFLnQBNVv1O-206" vertex="1">
          <mxGeometry y="56" width="160" height="30" as="geometry" />
        </mxCell>
        <mxCell id="arhuPyZS-XFLnQBNVv1O-221" value="PK,FK1" style="shape=partialRectangle;fontStyle=1;top=0;left=0;bottom=0;html=1;fillColor=none;align=left;verticalAlign=middle;spacingLeft=4;spacingRight=4;whiteSpace=wrap;overflow=hidden;rotatable=0;points=[];portConstraint=eastwest;part=1;" parent="arhuPyZS-XFLnQBNVv1O-220" vertex="1" connectable="0">
          <mxGeometry width="56" height="30" as="geometry" />
        </mxCell>
        <mxCell id="arhuPyZS-XFLnQBNVv1O-218" value="place_type" style="shape=partialRectangle;top=0;left=0;right=0;bottom=1;html=1;align=left;verticalAlign=middle;fillColor=none;spacingLeft=60;spacingRight=4;whiteSpace=wrap;overflow=hidden;rotatable=0;points=[[0,0.5],[1,0.5]];portConstraint=eastwest;dropTarget=0;fontStyle=5;" parent="arhuPyZS-XFLnQBNVv1O-206" vertex="1">
          <mxGeometry y="86" width="160" height="30" as="geometry" />
        </mxCell>
        <mxCell id="arhuPyZS-XFLnQBNVv1O-219" value="PK,FK2" style="shape=partialRectangle;fontStyle=1;top=0;left=0;bottom=0;html=1;fillColor=none;align=left;verticalAlign=middle;spacingLeft=4;spacingRight=4;whiteSpace=wrap;overflow=hidden;rotatable=0;points=[];portConstraint=eastwest;part=1;" parent="arhuPyZS-XFLnQBNVv1O-218" vertex="1" connectable="0">
          <mxGeometry width="56" height="30" as="geometry" />
        </mxCell>
        <mxCell id="arhuPyZS-XFLnQBNVv1O-211" value="price" style="shape=partialRectangle;top=0;left=0;right=0;bottom=0;html=1;align=left;verticalAlign=top;fillColor=none;spacingLeft=60;spacingRight=4;whiteSpace=wrap;overflow=hidden;rotatable=0;points=[[0,0.5],[1,0.5]];portConstraint=eastwest;dropTarget=0;" parent="arhuPyZS-XFLnQBNVv1O-206" vertex="1">
          <mxGeometry y="116" width="160" height="34" as="geometry" />
        </mxCell>
        <mxCell id="arhuPyZS-XFLnQBNVv1O-212" value="" style="shape=partialRectangle;top=0;left=0;bottom=0;html=1;fillColor=none;align=left;verticalAlign=top;spacingLeft=4;spacingRight=4;whiteSpace=wrap;overflow=hidden;rotatable=0;points=[];portConstraint=eastwest;part=1;" parent="arhuPyZS-XFLnQBNVv1O-211" vertex="1" connectable="0">
          <mxGeometry width="56" height="34" as="geometry" />
        </mxCell>
        <mxCell id="arhuPyZS-XFLnQBNVv1O-332" value="" style="endArrow=ERoneToMany;html=1;rounded=0;entryX=1;entryY=0.5;entryDx=0;entryDy=0;edgeStyle=orthogonalEdgeStyle;startArrow=ERmandOne;startFill=0;endFill=0;exitX=-0.012;exitY=0.734;exitDx=0;exitDy=0;exitPerimeter=0;" parent="1" source="arhuPyZS-XFLnQBNVv1O-108" edge="1">
          <mxGeometry width="50" height="50" relative="1" as="geometry">
            <mxPoint x="560" y="350" as="sourcePoint" />
            <mxPoint x="480" y="441" as="targetPoint" />
            <Array as="points">
              <mxPoint x="560" y="393" />
              <mxPoint x="560" y="441" />
            </Array>
          </mxGeometry>
        </mxCell>
        <mxCell id="arhuPyZS-XFLnQBNVv1O-336" value="" style="endArrow=ERmandOne;html=1;rounded=0;exitX=1;exitY=0.5;exitDx=0;exitDy=0;entryX=0;entryY=0.5;entryDx=0;entryDy=0;edgeStyle=orthogonalEdgeStyle;startArrow=ERoneToMany;startFill=0;endFill=0;" parent="1" source="arhuPyZS-XFLnQBNVv1O-186" target="arhuPyZS-XFLnQBNVv1O-130" edge="1">
          <mxGeometry width="50" height="50" relative="1" as="geometry">
            <mxPoint x="1340" y="640" as="sourcePoint" />
            <mxPoint x="1390" y="590" as="targetPoint" />
          </mxGeometry>
        </mxCell>
        <mxCell id="arhuPyZS-XFLnQBNVv1O-342" value="" style="endArrow=ERzeroToOne;html=1;rounded=0;entryX=0;entryY=0.5;entryDx=0;entryDy=0;exitX=1;exitY=0.5;exitDx=0;exitDy=0;edgeStyle=orthogonalEdgeStyle;startArrow=ERzeroToMany;startFill=0;endFill=0;" parent="1" source="arhuPyZS-XFLnQBNVv1O-218" target="arhuPyZS-XFLnQBNVv1O-176" edge="1">
          <mxGeometry width="50" height="50" relative="1" as="geometry">
            <mxPoint x="430" y="870" as="sourcePoint" />
            <mxPoint x="480" y="820" as="targetPoint" />
          </mxGeometry>
        </mxCell>
        <mxCell id="arhuPyZS-XFLnQBNVv1O-343" value="" style="endArrow=ERmany;html=1;rounded=0;entryX=0;entryY=0.297;entryDx=0;entryDy=0;entryPerimeter=0;exitX=1;exitY=0.5;exitDx=0;exitDy=0;edgeStyle=orthogonalEdgeStyle;startArrow=ERmany;startFill=0;endFill=0;" parent="1" source="arhuPyZS-XFLnQBNVv1O-220" target="arhuPyZS-XFLnQBNVv1O-108" edge="1">
          <mxGeometry width="50" height="50" relative="1" as="geometry">
            <mxPoint x="100" y="650" as="sourcePoint" />
            <mxPoint x="150" y="600" as="targetPoint" />
            <Array as="points">
              <mxPoint x="520" y="711" />
              <mxPoint x="520" y="365" />
            </Array>
          </mxGeometry>
        </mxCell>
        <mxCell id="Wr99EXLbg5ZRJ_MYH07s-36" value="&lt;span style=&quot;color: rgb(0, 0, 0); font-family: Verdana; font-size: 14px; font-style: normal; font-variant-ligatures: normal; font-variant-caps: normal; font-weight: 400; letter-spacing: normal; orphans: 2; text-align: center; text-indent: 0px; text-transform: none; widows: 2; word-spacing: 0px; -webkit-text-stroke-width: 0px; white-space: pre-wrap; background-color: rgb(228, 228, 228); text-decoration-thickness: initial; text-decoration-style: initial; text-decoration-color: initial; display: inline !important; float: none;&quot;&gt;Order&lt;/span&gt;" style="swimlane;html=1;fontStyle=0;childLayout=stackLayout;horizontal=1;startSize=26;fillColor=#e0e0e0;horizontalStack=0;resizeParent=1;resizeLast=0;collapsible=1;marginBottom=0;swimlaneFillColor=#ffffff;align=center;rounded=0;shadow=0;comic=0;labelBackgroundColor=none;strokeWidth=1;fontFamily=Verdana;fontSize=14" parent="1" vertex="1">
          <mxGeometry x="39" y="440" width="160" height="174" as="geometry">
            <mxRectangle x="40" y="368" width="70" height="30" as="alternateBounds" />
          </mxGeometry>
        </mxCell>
        <mxCell id="Wr99EXLbg5ZRJ_MYH07s-37" value="uniqueId" style="shape=partialRectangle;top=0;left=0;right=0;bottom=1;html=1;align=left;verticalAlign=middle;fillColor=none;spacingLeft=34;spacingRight=4;whiteSpace=wrap;overflow=hidden;rotatable=0;points=[[0,0.5],[1,0.5]];portConstraint=eastwest;dropTarget=0;fontStyle=5;" parent="Wr99EXLbg5ZRJ_MYH07s-36" vertex="1">
          <mxGeometry y="26" width="160" height="30" as="geometry" />
        </mxCell>
        <mxCell id="Wr99EXLbg5ZRJ_MYH07s-38" value="PK" style="shape=partialRectangle;top=0;left=0;bottom=0;html=1;fillColor=none;align=left;verticalAlign=middle;spacingLeft=4;spacingRight=4;whiteSpace=wrap;overflow=hidden;rotatable=0;points=[];portConstraint=eastwest;part=1;" parent="Wr99EXLbg5ZRJ_MYH07s-37" vertex="1" connectable="0">
          <mxGeometry width="30" height="30" as="geometry" />
        </mxCell>
        <mxCell id="Wr99EXLbg5ZRJ_MYH07s-41" value="client_id" style="shape=partialRectangle;top=0;left=0;right=0;bottom=0;html=1;align=left;verticalAlign=top;fillColor=none;spacingLeft=34;spacingRight=4;whiteSpace=wrap;overflow=hidden;rotatable=0;points=[[0,0.5],[1,0.5]];portConstraint=eastwest;dropTarget=0;" parent="Wr99EXLbg5ZRJ_MYH07s-36" vertex="1">
          <mxGeometry y="56" width="160" height="26" as="geometry" />
        </mxCell>
        <mxCell id="Wr99EXLbg5ZRJ_MYH07s-42" value="" style="shape=partialRectangle;top=0;left=0;bottom=0;html=1;fillColor=none;align=left;verticalAlign=top;spacingLeft=4;spacingRight=4;whiteSpace=wrap;overflow=hidden;rotatable=0;points=[];portConstraint=eastwest;part=1;" parent="Wr99EXLbg5ZRJ_MYH07s-41" vertex="1" connectable="0">
          <mxGeometry width="30" height="26" as="geometry" />
        </mxCell>
        <mxCell id="Wr99EXLbg5ZRJ_MYH07s-43" value="status" style="shape=partialRectangle;top=0;left=0;right=0;bottom=0;html=1;align=left;verticalAlign=top;fillColor=none;spacingLeft=34;spacingRight=4;whiteSpace=wrap;overflow=hidden;rotatable=0;points=[[0,0.5],[1,0.5]];portConstraint=eastwest;dropTarget=0;" parent="Wr99EXLbg5ZRJ_MYH07s-36" vertex="1">
          <mxGeometry y="82" width="160" height="26" as="geometry" />
        </mxCell>
        <mxCell id="Wr99EXLbg5ZRJ_MYH07s-44" value="" style="shape=partialRectangle;top=0;left=0;bottom=0;html=1;fillColor=none;align=left;verticalAlign=top;spacingLeft=4;spacingRight=4;whiteSpace=wrap;overflow=hidden;rotatable=0;points=[];portConstraint=eastwest;part=1;" parent="Wr99EXLbg5ZRJ_MYH07s-43" vertex="1" connectable="0">
          <mxGeometry width="30" height="26" as="geometry" />
        </mxCell>
        <mxCell id="Wr99EXLbg5ZRJ_MYH07s-45" value="created_at" style="shape=partialRectangle;top=0;left=0;right=0;bottom=0;html=1;align=left;verticalAlign=top;fillColor=none;spacingLeft=34;spacingRight=4;whiteSpace=wrap;overflow=hidden;rotatable=0;points=[[0,0.5],[1,0.5]];portConstraint=eastwest;dropTarget=0;" parent="Wr99EXLbg5ZRJ_MYH07s-36" vertex="1">
          <mxGeometry y="108" width="160" height="26" as="geometry" />
        </mxCell>
        <mxCell id="Wr99EXLbg5ZRJ_MYH07s-46" value="" style="shape=partialRectangle;top=0;left=0;bottom=0;html=1;fillColor=none;align=left;verticalAlign=top;spacingLeft=4;spacingRight=4;whiteSpace=wrap;overflow=hidden;rotatable=0;points=[];portConstraint=eastwest;part=1;" parent="Wr99EXLbg5ZRJ_MYH07s-45" vertex="1" connectable="0">
          <mxGeometry width="30" height="26" as="geometry" />
        </mxCell>
        <mxCell id="Wr99EXLbg5ZRJ_MYH07s-47" value="updated_at" style="shape=partialRectangle;top=0;left=0;right=0;bottom=0;html=1;align=left;verticalAlign=top;fillColor=none;spacingLeft=34;spacingRight=4;whiteSpace=wrap;overflow=hidden;rotatable=0;points=[[0,0.5],[1,0.5]];portConstraint=eastwest;dropTarget=0;" parent="Wr99EXLbg5ZRJ_MYH07s-36" vertex="1">
          <mxGeometry y="134" width="160" height="40" as="geometry" />
        </mxCell>
        <mxCell id="Wr99EXLbg5ZRJ_MYH07s-48" value="" style="shape=partialRectangle;top=0;left=0;bottom=0;html=1;fillColor=none;align=left;verticalAlign=top;spacingLeft=4;spacingRight=4;whiteSpace=wrap;overflow=hidden;rotatable=0;points=[];portConstraint=eastwest;part=1;" parent="Wr99EXLbg5ZRJ_MYH07s-47" vertex="1" connectable="0">
          <mxGeometry width="30" height="40" as="geometry" />
        </mxCell>
        <mxCell id="xFFmiaN4b--JjtwQekkA-16" value="&lt;span style=&quot;color: rgb(0, 0, 0); font-family: Verdana; font-size: 14px; font-style: normal; font-variant-ligatures: normal; font-variant-caps: normal; font-weight: 400; letter-spacing: normal; orphans: 2; text-align: center; text-indent: 0px; text-transform: none; widows: 2; word-spacing: 0px; -webkit-text-stroke-width: 0px; white-space: pre-wrap; background-color: rgb(228, 228, 228); text-decoration-thickness: initial; text-decoration-style: initial; text-decoration-color: initial; float: none; display: inline !important;&quot;&gt;Payment&lt;/span&gt;" style="swimlane;html=1;fontStyle=0;childLayout=stackLayout;horizontal=1;startSize=26;fillColor=#e0e0e0;horizontalStack=0;resizeParent=1;resizeLast=0;collapsible=1;marginBottom=0;swimlaneFillColor=#ffffff;align=center;rounded=0;shadow=0;comic=0;labelBackgroundColor=none;strokeWidth=1;fontFamily=Verdana;fontSize=14" parent="1" vertex="1">
          <mxGeometry x="39" y="680" width="160" height="200" as="geometry">
            <mxRectangle x="40" y="368" width="70" height="30" as="alternateBounds" />
          </mxGeometry>
        </mxCell>
        <mxCell id="xFFmiaN4b--JjtwQekkA-17" value="uniqueId" style="shape=partialRectangle;top=0;left=0;right=0;bottom=1;html=1;align=left;verticalAlign=middle;fillColor=none;spacingLeft=34;spacingRight=4;whiteSpace=wrap;overflow=hidden;rotatable=0;points=[[0,0.5],[1,0.5]];portConstraint=eastwest;dropTarget=0;fontStyle=5;" parent="xFFmiaN4b--JjtwQekkA-16" vertex="1">
          <mxGeometry y="26" width="160" height="30" as="geometry" />
        </mxCell>
        <mxCell id="xFFmiaN4b--JjtwQekkA-18" value="PK" style="shape=partialRectangle;top=0;left=0;bottom=0;html=1;fillColor=none;align=left;verticalAlign=middle;spacingLeft=4;spacingRight=4;whiteSpace=wrap;overflow=hidden;rotatable=0;points=[];portConstraint=eastwest;part=1;" parent="xFFmiaN4b--JjtwQekkA-17" vertex="1" connectable="0">
          <mxGeometry width="30" height="30" as="geometry" />
        </mxCell>
        <mxCell id="xFFmiaN4b--JjtwQekkA-19" value="order_id" style="shape=partialRectangle;top=0;left=0;right=0;bottom=0;html=1;align=left;verticalAlign=top;fillColor=none;spacingLeft=34;spacingRight=4;whiteSpace=wrap;overflow=hidden;rotatable=0;points=[[0,0.5],[1,0.5]];portConstraint=eastwest;dropTarget=0;" parent="xFFmiaN4b--JjtwQekkA-16" vertex="1">
          <mxGeometry y="56" width="160" height="26" as="geometry" />
        </mxCell>
        <mxCell id="xFFmiaN4b--JjtwQekkA-20" value="" style="shape=partialRectangle;top=0;left=0;bottom=0;html=1;fillColor=none;align=left;verticalAlign=top;spacingLeft=4;spacingRight=4;whiteSpace=wrap;overflow=hidden;rotatable=0;points=[];portConstraint=eastwest;part=1;" parent="xFFmiaN4b--JjtwQekkA-19" vertex="1" connectable="0">
          <mxGeometry width="30" height="26" as="geometry" />
        </mxCell>
        <mxCell id="xFFmiaN4b--JjtwQekkA-21" value="is_payd" style="shape=partialRectangle;top=0;left=0;right=0;bottom=0;html=1;align=left;verticalAlign=top;fillColor=none;spacingLeft=34;spacingRight=4;whiteSpace=wrap;overflow=hidden;rotatable=0;points=[[0,0.5],[1,0.5]];portConstraint=eastwest;dropTarget=0;" parent="xFFmiaN4b--JjtwQekkA-16" vertex="1">
          <mxGeometry y="82" width="160" height="26" as="geometry" />
        </mxCell>
        <mxCell id="xFFmiaN4b--JjtwQekkA-22" value="" style="shape=partialRectangle;top=0;left=0;bottom=0;html=1;fillColor=none;align=left;verticalAlign=top;spacingLeft=4;spacingRight=4;whiteSpace=wrap;overflow=hidden;rotatable=0;points=[];portConstraint=eastwest;part=1;" parent="xFFmiaN4b--JjtwQekkA-21" vertex="1" connectable="0">
          <mxGeometry width="30" height="26" as="geometry" />
        </mxCell>
        <mxCell id="xFFmiaN4b--JjtwQekkA-23" value="&lt;span style=&quot;white-space-collapse: preserve;&quot; data-src-align=&quot;0:5&quot; class=&quot;EzKURWReUAB5oZgtQNkl&quot;&gt;amount&lt;/span&gt;" style="shape=partialRectangle;top=0;left=0;right=0;bottom=0;html=1;align=left;verticalAlign=top;fillColor=none;spacingLeft=34;spacingRight=4;whiteSpace=wrap;overflow=hidden;rotatable=0;points=[[0,0.5],[1,0.5]];portConstraint=eastwest;dropTarget=0;" parent="xFFmiaN4b--JjtwQekkA-16" vertex="1">
          <mxGeometry y="108" width="160" height="26" as="geometry" />
        </mxCell>
        <mxCell id="xFFmiaN4b--JjtwQekkA-24" value="" style="shape=partialRectangle;top=0;left=0;bottom=0;html=1;fillColor=none;align=left;verticalAlign=top;spacingLeft=4;spacingRight=4;whiteSpace=wrap;overflow=hidden;rotatable=0;points=[];portConstraint=eastwest;part=1;" parent="xFFmiaN4b--JjtwQekkA-23" vertex="1" connectable="0">
          <mxGeometry width="30" height="26" as="geometry" />
        </mxCell>
        <mxCell id="xFFmiaN4b--JjtwQekkA-25" value="created_at" style="shape=partialRectangle;top=0;left=0;right=0;bottom=0;html=1;align=left;verticalAlign=top;fillColor=none;spacingLeft=34;spacingRight=4;whiteSpace=wrap;overflow=hidden;rotatable=0;points=[[0,0.5],[1,0.5]];portConstraint=eastwest;dropTarget=0;" parent="xFFmiaN4b--JjtwQekkA-16" vertex="1">
          <mxGeometry y="134" width="160" height="26" as="geometry" />
        </mxCell>
        <mxCell id="xFFmiaN4b--JjtwQekkA-26" value="" style="shape=partialRectangle;top=0;left=0;bottom=0;html=1;fillColor=none;align=left;verticalAlign=top;spacingLeft=4;spacingRight=4;whiteSpace=wrap;overflow=hidden;rotatable=0;points=[];portConstraint=eastwest;part=1;" parent="xFFmiaN4b--JjtwQekkA-25" vertex="1" connectable="0">
          <mxGeometry width="30" height="26" as="geometry" />
        </mxCell>
        <mxCell id="xFFmiaN4b--JjtwQekkA-27" value="updated_at" style="shape=partialRectangle;top=0;left=0;right=0;bottom=0;html=1;align=left;verticalAlign=top;fillColor=none;spacingLeft=34;spacingRight=4;whiteSpace=wrap;overflow=hidden;rotatable=0;points=[[0,0.5],[1,0.5]];portConstraint=eastwest;dropTarget=0;" parent="xFFmiaN4b--JjtwQekkA-16" vertex="1">
          <mxGeometry y="160" width="160" height="40" as="geometry" />
        </mxCell>
        <mxCell id="xFFmiaN4b--JjtwQekkA-28" value="" style="shape=partialRectangle;top=0;left=0;bottom=0;html=1;fillColor=none;align=left;verticalAlign=top;spacingLeft=4;spacingRight=4;whiteSpace=wrap;overflow=hidden;rotatable=0;points=[];portConstraint=eastwest;part=1;" parent="xFFmiaN4b--JjtwQekkA-27" vertex="1" connectable="0">
          <mxGeometry width="30" height="40" as="geometry" />
        </mxCell>
        <mxCell id="xFFmiaN4b--JjtwQekkA-30" value="&lt;span style=&quot;white-space: pre-wrap; background-color: rgb(228, 228, 228);&quot;&gt;&lt;font style=&quot;&quot;&gt;Ticket&lt;/font&gt;&lt;/span&gt;" style="swimlane;html=1;fontStyle=0;childLayout=stackLayout;horizontal=1;startSize=26;fillColor=#e0e0e0;horizontalStack=0;resizeParent=1;resizeLast=0;collapsible=1;marginBottom=0;swimlaneFillColor=#ffffff;align=center;rounded=0;shadow=0;comic=0;labelBackgroundColor=none;strokeWidth=1;fontFamily=Verdana;fontSize=14" parent="1" vertex="1">
          <mxGeometry x="320" y="320" width="160" height="250" as="geometry">
            <mxRectangle x="40" y="368" width="70" height="30" as="alternateBounds" />
          </mxGeometry>
        </mxCell>
        <mxCell id="xFFmiaN4b--JjtwQekkA-31" value="uniqueId" style="shape=partialRectangle;top=0;left=0;right=0;bottom=1;html=1;align=left;verticalAlign=middle;fillColor=none;spacingLeft=34;spacingRight=4;whiteSpace=wrap;overflow=hidden;rotatable=0;points=[[0,0.5],[1,0.5]];portConstraint=eastwest;dropTarget=0;fontStyle=5;" parent="xFFmiaN4b--JjtwQekkA-30" vertex="1">
          <mxGeometry y="26" width="160" height="30" as="geometry" />
        </mxCell>
        <mxCell id="xFFmiaN4b--JjtwQekkA-32" value="PK" style="shape=partialRectangle;top=0;left=0;bottom=0;html=1;fillColor=none;align=left;verticalAlign=middle;spacingLeft=4;spacingRight=4;whiteSpace=wrap;overflow=hidden;rotatable=0;points=[];portConstraint=eastwest;part=1;" parent="xFFmiaN4b--JjtwQekkA-31" vertex="1" connectable="0">
          <mxGeometry width="30" height="30" as="geometry" />
        </mxCell>
        <mxCell id="xFFmiaN4b--JjtwQekkA-33" value="client_id" style="shape=partialRectangle;top=0;left=0;right=0;bottom=0;html=1;align=left;verticalAlign=top;fillColor=none;spacingLeft=34;spacingRight=4;whiteSpace=wrap;overflow=hidden;rotatable=0;points=[[0,0.5],[1,0.5]];portConstraint=eastwest;dropTarget=0;" parent="xFFmiaN4b--JjtwQekkA-30" vertex="1">
          <mxGeometry y="56" width="160" height="26" as="geometry" />
        </mxCell>
        <mxCell id="xFFmiaN4b--JjtwQekkA-34" value="" style="shape=partialRectangle;top=0;left=0;bottom=0;html=1;fillColor=none;align=left;verticalAlign=top;spacingLeft=4;spacingRight=4;whiteSpace=wrap;overflow=hidden;rotatable=0;points=[];portConstraint=eastwest;part=1;" parent="xFFmiaN4b--JjtwQekkA-33" vertex="1" connectable="0">
          <mxGeometry width="30" height="26" as="geometry" />
        </mxCell>
        <mxCell id="xFFmiaN4b--JjtwQekkA-35" value="place_id" style="shape=partialRectangle;top=0;left=0;right=0;bottom=0;html=1;align=left;verticalAlign=top;fillColor=none;spacingLeft=34;spacingRight=4;whiteSpace=wrap;overflow=hidden;rotatable=0;points=[[0,0.5],[1,0.5]];portConstraint=eastwest;dropTarget=0;" parent="xFFmiaN4b--JjtwQekkA-30" vertex="1">
          <mxGeometry y="82" width="160" height="26" as="geometry" />
        </mxCell>
        <mxCell id="xFFmiaN4b--JjtwQekkA-36" value="" style="shape=partialRectangle;top=0;left=0;bottom=0;html=1;fillColor=none;align=left;verticalAlign=top;spacingLeft=4;spacingRight=4;whiteSpace=wrap;overflow=hidden;rotatable=0;points=[];portConstraint=eastwest;part=1;" parent="xFFmiaN4b--JjtwQekkA-35" vertex="1" connectable="0">
          <mxGeometry width="30" height="26" as="geometry" />
        </mxCell>
        <mxCell id="xFFmiaN4b--JjtwQekkA-37" value="session_id" style="shape=partialRectangle;top=0;left=0;right=0;bottom=0;html=1;align=left;verticalAlign=top;fillColor=none;spacingLeft=34;spacingRight=4;whiteSpace=wrap;overflow=hidden;rotatable=0;points=[[0,0.5],[1,0.5]];portConstraint=eastwest;dropTarget=0;" parent="xFFmiaN4b--JjtwQekkA-30" vertex="1">
          <mxGeometry y="108" width="160" height="26" as="geometry" />
        </mxCell>
        <mxCell id="xFFmiaN4b--JjtwQekkA-38" value="" style="shape=partialRectangle;top=0;left=0;bottom=0;html=1;fillColor=none;align=left;verticalAlign=top;spacingLeft=4;spacingRight=4;whiteSpace=wrap;overflow=hidden;rotatable=0;points=[];portConstraint=eastwest;part=1;" parent="xFFmiaN4b--JjtwQekkA-37" vertex="1" connectable="0">
          <mxGeometry width="30" height="26" as="geometry" />
        </mxCell>
        <mxCell id="xFFmiaN4b--JjtwQekkA-39" value="&lt;span style=&quot;color: rgb(0, 0, 0); font-family: Helvetica; font-size: 12px; font-style: normal; font-variant-ligatures: normal; font-variant-caps: normal; font-weight: 400; letter-spacing: normal; orphans: 2; text-align: left; text-indent: 0px; text-transform: none; widows: 2; word-spacing: 0px; -webkit-text-stroke-width: 0px; white-space: normal; background-color: rgb(251, 251, 251); text-decoration-thickness: initial; text-decoration-style: initial; text-decoration-color: initial; float: none; display: inline !important;&quot;&gt;order_id&lt;/span&gt;" style="shape=partialRectangle;top=0;left=0;right=0;bottom=0;html=1;align=left;verticalAlign=top;fillColor=none;spacingLeft=34;spacingRight=4;whiteSpace=wrap;overflow=hidden;rotatable=0;points=[[0,0.5],[1,0.5]];portConstraint=eastwest;dropTarget=0;" parent="xFFmiaN4b--JjtwQekkA-30" vertex="1">
          <mxGeometry y="134" width="160" height="26" as="geometry" />
        </mxCell>
        <mxCell id="xFFmiaN4b--JjtwQekkA-40" value="" style="shape=partialRectangle;top=0;left=0;bottom=0;html=1;fillColor=none;align=left;verticalAlign=top;spacingLeft=4;spacingRight=4;whiteSpace=wrap;overflow=hidden;rotatable=0;points=[];portConstraint=eastwest;part=1;" parent="xFFmiaN4b--JjtwQekkA-39" vertex="1" connectable="0">
          <mxGeometry width="30" height="26" as="geometry" />
        </mxCell>
        <mxCell id="xFFmiaN4b--JjtwQekkA-51" value="price" style="shape=partialRectangle;top=0;left=0;right=0;bottom=0;html=1;align=left;verticalAlign=top;fillColor=none;spacingLeft=34;spacingRight=4;whiteSpace=wrap;overflow=hidden;rotatable=0;points=[[0,0.5],[1,0.5]];portConstraint=eastwest;dropTarget=0;" parent="xFFmiaN4b--JjtwQekkA-30" vertex="1">
          <mxGeometry y="160" width="160" height="26" as="geometry" />
        </mxCell>
        <mxCell id="xFFmiaN4b--JjtwQekkA-52" value="" style="shape=partialRectangle;top=0;left=0;bottom=0;html=1;fillColor=none;align=left;verticalAlign=top;spacingLeft=4;spacingRight=4;whiteSpace=wrap;overflow=hidden;rotatable=0;points=[];portConstraint=eastwest;part=1;" parent="xFFmiaN4b--JjtwQekkA-51" vertex="1" connectable="0">
          <mxGeometry width="30" height="26" as="geometry" />
        </mxCell>
        <mxCell id="xFFmiaN4b--JjtwQekkA-44" value="created_at" style="shape=partialRectangle;top=0;left=0;right=0;bottom=0;html=1;align=left;verticalAlign=top;fillColor=none;spacingLeft=34;spacingRight=4;whiteSpace=wrap;overflow=hidden;rotatable=0;points=[[0,0.5],[1,0.5]];portConstraint=eastwest;dropTarget=0;" parent="xFFmiaN4b--JjtwQekkA-30" vertex="1">
          <mxGeometry y="186" width="160" height="26" as="geometry" />
        </mxCell>
        <mxCell id="xFFmiaN4b--JjtwQekkA-45" value="" style="shape=partialRectangle;top=0;left=0;bottom=0;html=1;fillColor=none;align=left;verticalAlign=top;spacingLeft=4;spacingRight=4;whiteSpace=wrap;overflow=hidden;rotatable=0;points=[];portConstraint=eastwest;part=1;" parent="xFFmiaN4b--JjtwQekkA-44" vertex="1" connectable="0">
          <mxGeometry width="30" height="26" as="geometry" />
        </mxCell>
        <mxCell id="xFFmiaN4b--JjtwQekkA-41" value="updated_at" style="shape=partialRectangle;top=0;left=0;right=0;bottom=0;html=1;align=left;verticalAlign=top;fillColor=none;spacingLeft=34;spacingRight=4;whiteSpace=wrap;overflow=hidden;rotatable=0;points=[[0,0.5],[1,0.5]];portConstraint=eastwest;dropTarget=0;" parent="xFFmiaN4b--JjtwQekkA-30" vertex="1">
          <mxGeometry y="212" width="160" height="38" as="geometry" />
        </mxCell>
        <mxCell id="xFFmiaN4b--JjtwQekkA-42" value="" style="shape=partialRectangle;top=0;left=0;bottom=0;html=1;fillColor=none;align=left;verticalAlign=top;spacingLeft=4;spacingRight=4;whiteSpace=wrap;overflow=hidden;rotatable=0;points=[];portConstraint=eastwest;part=1;" parent="xFFmiaN4b--JjtwQekkA-41" vertex="1" connectable="0">
          <mxGeometry width="30" height="38" as="geometry" />
        </mxCell>
        <mxCell id="xFFmiaN4b--JjtwQekkA-43" value="" style="shape=partialRectangle;top=0;left=0;right=0;bottom=0;html=1;align=left;verticalAlign=top;fillColor=none;spacingLeft=34;spacingRight=4;whiteSpace=wrap;overflow=hidden;rotatable=0;points=[[0,0.5],[1,0.5]];portConstraint=eastwest;dropTarget=0;" parent="xFFmiaN4b--JjtwQekkA-30" vertex="1">
          <mxGeometry y="250" width="160" as="geometry" />
        </mxCell>
        <mxCell id="xFFmiaN4b--JjtwQekkA-46" value="" style="endArrow=ERmandOne;html=1;rounded=0;entryX=0;entryY=0.5;entryDx=0;entryDy=0;exitX=1;exitY=0.5;exitDx=0;exitDy=0;edgeStyle=orthogonalEdgeStyle;startArrow=ERoneToMany;startFill=0;endFill=0;" parent="1" source="xFFmiaN4b--JjtwQekkA-35" target="arhuPyZS-XFLnQBNVv1O-168" edge="1">
          <mxGeometry width="50" height="50" relative="1" as="geometry">
            <mxPoint x="570" y="960" as="sourcePoint" />
            <mxPoint x="620" y="910" as="targetPoint" />
          </mxGeometry>
        </mxCell>
        <mxCell id="xFFmiaN4b--JjtwQekkA-47" value="" style="endArrow=ERoneToMany;html=1;rounded=0;exitX=1;exitY=0.5;exitDx=0;exitDy=0;entryX=0;entryY=0.5;entryDx=0;entryDy=0;edgeStyle=elbowEdgeStyle;startArrow=ERmandOne;startFill=0;endFill=0;" parent="1" source="arhuPyZS-XFLnQBNVv1O-78" target="xFFmiaN4b--JjtwQekkA-33" edge="1">
          <mxGeometry width="50" height="50" relative="1" as="geometry">
            <mxPoint x="380" y="210" as="sourcePoint" />
            <mxPoint x="430" y="160" as="targetPoint" />
          </mxGeometry>
        </mxCell>
        <mxCell id="xFFmiaN4b--JjtwQekkA-50" value="" style="endArrow=ERmandOne;html=1;rounded=0;entryX=0;entryY=0.5;entryDx=0;entryDy=0;exitX=0;exitY=0.5;exitDx=0;exitDy=0;edgeStyle=orthogonalEdgeStyle;startArrow=ERoneToMany;startFill=0;endFill=0;" parent="1" source="xFFmiaN4b--JjtwQekkA-19" target="Wr99EXLbg5ZRJ_MYH07s-37" edge="1">
          <mxGeometry width="50" height="50" relative="1" as="geometry">
            <mxPoint x="-120" y="590" as="sourcePoint" />
            <mxPoint x="-70" y="540" as="targetPoint" />
            <Array as="points">
              <mxPoint x="-20" y="749" />
              <mxPoint x="-20" y="481" />
            </Array>
          </mxGeometry>
        </mxCell>
        <mxCell id="xFFmiaN4b--JjtwQekkA-53" value="" style="endArrow=ERoneToMany;html=1;rounded=0;exitX=1;exitY=0.5;exitDx=0;exitDy=0;entryX=0;entryY=0.5;entryDx=0;entryDy=0;edgeStyle=orthogonalEdgeStyle;startArrow=ERmandOne;startFill=0;endFill=0;" parent="1" source="Wr99EXLbg5ZRJ_MYH07s-37" target="xFFmiaN4b--JjtwQekkA-39" edge="1">
          <mxGeometry width="50" height="50" relative="1" as="geometry">
            <mxPoint x="430" y="210" as="sourcePoint" />
            <mxPoint x="480" y="160" as="targetPoint" />
          </mxGeometry>
        </mxCell>
        <mxCell id="yUL1yEBo_6MAkZ0JsvIg-1" value="" style="endArrow=ERmandOne;html=1;rounded=0;entryX=0;entryY=0.5;entryDx=0;entryDy=0;exitX=0;exitY=0.5;exitDx=0;exitDy=0;edgeStyle=orthogonalEdgeStyle;startArrow=ERoneToMany;startFill=0;endFill=0;" edge="1" parent="1" source="Wr99EXLbg5ZRJ_MYH07s-41" target="arhuPyZS-XFLnQBNVv1O-78">
          <mxGeometry width="50" height="50" relative="1" as="geometry">
            <mxPoint x="-60" y="350" as="sourcePoint" />
            <mxPoint x="-10" y="300" as="targetPoint" />
            <Array as="points">
              <mxPoint y="509" />
              <mxPoint y="281" />
            </Array>
          </mxGeometry>
        </mxCell>
        <mxCell id="yUL1yEBo_6MAkZ0JsvIg-2" value="" style="endArrow=ERzeroToMany;html=1;rounded=0;entryX=0;entryY=0.5;entryDx=0;entryDy=0;exitX=0;exitY=0.5;exitDx=0;exitDy=0;edgeStyle=orthogonalEdgeStyle;startArrow=ERzeroToOne;startFill=0;endFill=0;" edge="1" parent="1" source="xFFmiaN4b--JjtwQekkA-41" target="arhuPyZS-XFLnQBNVv1O-207">
          <mxGeometry width="50" height="50" relative="1" as="geometry">
            <mxPoint x="250" y="620" as="sourcePoint" />
            <mxPoint x="300" y="570" as="targetPoint" />
            <Array as="points">
              <mxPoint x="280" y="551" />
              <mxPoint x="280" y="681" />
            </Array>
          </mxGeometry>
        </mxCell>
        <mxCell id="yUL1yEBo_6MAkZ0JsvIg-5" value="" style="endArrow=ERmandOne;html=1;rounded=0;entryX=0;entryY=0.5;entryDx=0;entryDy=0;exitX=1;exitY=0.5;exitDx=0;exitDy=0;edgeStyle=orthogonalEdgeStyle;startArrow=ERoneToMany;startFill=0;endFill=0;" edge="1" parent="1" source="arhuPyZS-XFLnQBNVv1O-110" target="arhuPyZS-XFLnQBNVv1O-119">
          <mxGeometry width="50" height="50" relative="1" as="geometry">
            <mxPoint x="720" y="230" as="sourcePoint" />
            <mxPoint x="770" y="180" as="targetPoint" />
          </mxGeometry>
        </mxCell>
        <mxCell id="yUL1yEBo_6MAkZ0JsvIg-6" value="" style="endArrow=ERmandOne;html=1;rounded=0;entryX=0;entryY=0.5;entryDx=0;entryDy=0;exitX=1;exitY=0.5;exitDx=0;exitDy=0;edgeStyle=orthogonalEdgeStyle;startArrow=ERoneToMany;startFill=0;endFill=0;" edge="1" parent="1" source="arhuPyZS-XFLnQBNVv1O-112" target="arhuPyZS-XFLnQBNVv1O-141">
          <mxGeometry width="50" height="50" relative="1" as="geometry">
            <mxPoint x="780" y="980" as="sourcePoint" />
            <mxPoint x="830" y="930" as="targetPoint" />
          </mxGeometry>
        </mxCell>
      </root>
    </mxGraphModel>
  </diagram>
</mxfile>
